<svg width="1000" height="274" xmlns="http://www.w3.org/2000/svg" display="block"><g fill="#fff" fill-rule="evenodd"><path d="M35.2.603C24.685 2.739 11.587 10.489 4.332 18.868c-7.127 8.23-7.1 8.261 8.468 9.729 6.05.571 33.225 3.182 60.389 5.802C127.118 39.601 124 39.441 124 37c0-1.462-.252-1.581-36.8-17.418C36.868-2.229 41.257-.627 35.2.603M.497 30.063C.126 30.434 0 33.235 0 41.08V51.6h.889c.99 0 58.175 5.472 60.183 5.759 1.136.162 2.204-.517 9.991-6.356 8.49-6.367 10.379-7.458 8.423-4.867-7.21 9.547-8.88 12.25-7.586 12.281.385.009 9.61.873 20.5 1.92l19.8 1.903 3.2-.979c4.089-1.25 4.04-1.194 3.398-3.871-.768-3.202-.342-4.117 2.603-5.59l2.399-1.2.118-3.6c.143-4.375-.065-5.326-1.224-5.596-.492-.115-27.174-2.721-59.294-5.793-32.12-3.071-59.301-5.687-60.403-5.814-1.339-.154-2.168-.066-2.5.266M177.61 43.016c-17.476 4.896-15.7 35.161 2.19 37.326 12.288 1.487 19.809-5.704 19.795-18.926-.015-13.742-9.695-21.843-21.985-18.4m39.19-.091c-9.53 2.756-14.651 14.09-11.421 25.278 5.024 17.406 29.06 16.52 32.815-1.21 3.308-15.613-7.723-28.022-21.394-24.068m69.4.03c-16.367 3.985-17.423 31.637-1.4 36.676 5.126 1.612 12.492.96 16.7-1.479l1.7-.986v-2.983c0-1.641-.082-2.983-.182-2.983-.1 0-1.198.711-2.439 1.581-12.104 8.479-24.854-2.156-20.397-17.014 2.601-8.676 13.136-11.398 20.695-5.349 2.142 1.715 2.323 1.575 2.323-1.811v-2.994l-1.992-1.009c-4.065-2.06-10.442-2.761-15.008-1.649M142 61.6V80h23.2v-4.8h-17.6v-32H142v18.4m103.6 0V80h5.6V65.6l2.5-.003c11.205-.014 15.463-2.794 15.822-10.331.452-9.501-3.034-12.066-16.395-12.066H245.6v18.4m66.9-.295c-3.795 9.954-6.9 18.233-6.9 18.397 0 .164 1.328.298 2.951.298h2.951l.914-2.5 1.68-4.608.768-2.109 7.855.109 7.856.108 1.564 4.5 1.565 4.5h2.948c1.621 0 2.951-.135 2.955-.3.004-.165-3.094-8.445-6.884-18.4l-6.891-18.1-3.216.004-3.216.003-6.9 18.098m31.5.295V80h5.6V63.031l8.24 8.484L366.08 80h3.56c2.594 0 3.56-.137 3.56-.503 0-.277-4.14-4.641-9.2-9.697-5.06-5.056-9.2-9.314-9.2-9.461 0-.147 3.87-3.908 8.6-8.357 4.73-4.45 8.6-8.246 8.6-8.436 0-.19-1.575-.344-3.5-.342l-3.5.003-7.6 7.134-7.6 7.134-.109-7.137-.109-7.138H344v18.4m32.4 0V80H400v-4.8h-18V62.8h17.2V58H382V48h17.6v-4.8h-23.2v18.4M187.757 48.553c8.684 5.09 7.812 23.038-1.289 26.52-8.111 3.103-14.634-2.893-14.658-13.473-.025-11.265 7.909-17.757 15.947-13.047m37.12-.883c9.828 2.945 10.725 22.579 1.241 27.17-8.304 4.02-16.573-3.994-15.519-15.04.88-9.225 6.901-14.34 14.278-12.13m35.443.892c2.432 1.266 3.08 2.451 3.08 5.638 0 4.67-1.797 6.087-8.214 6.478l-3.986.243V48h4.02c2.673 0 4.382.188 5.1.562m65.433 9.538l2.944 7.9h-5.948c-3.272 0-5.95-.135-5.95-.3-.003-.561 5.8-16.073 5.906-15.786.057.157 1.429 3.841 3.048 8.186M0 64.314v10.315l26.242 2.529c22.059 2.127 26.321 2.443 26.744 1.986.277-.299 1.113-1.674 1.857-3.055l1.354-2.511-1.509-4.435c-1.69-4.966-1.761-4.634 1.481-6.957 2.715-1.945 2.774-2.44.331-2.759C54.918 59.221.739 54 .181 54 .081 54 0 58.641 0 64.314m67.603-1.854c-1.483 2.047-1.493 1.723.197 6.74.77 2.286 1.4 4.198 1.4 4.249 0 .05-1.575 1.489-3.5 3.196-1.925 1.708-3.549 3.296-3.61 3.53-.072.278 8.911 1.296 26.023 2.948l26.133 2.523 3.877-1.242c2.132-.683 3.877-1.299 3.877-1.368 0-.07.174-1.045.387-2.168.297-1.567.251-2.427-.2-3.705-.755-2.141-.745-4.695.029-7.358.6-2.064.589-2.185-.443-4.761-1.234-3.084-1.065-3.043-6.05-1.469l-3.677 1.16-20.323-1.965c-24.877-2.405-22.624-2.376-24.12-.31M0 87.609v10.408l.9.359c.495.198 5.94.822 12.1 1.388 6.16.565 29.11 2.743 51 4.838 47.068 4.506 58.443 5.392 59.368 4.625 1.127-.936.88-7.476-.375-9.893-1.323-2.55-1.923-6.394-1.599-10.234.306-3.633.504-3.531-3.979-2.038l-3.188 1.061-6.814-.659a59365.12 59365.12 0 0 0-27.745-2.673l-20.931-2.013-6.65 5.868c-3.657 3.227-6.716 5.668-6.797 5.425-.081-.243 1.236-2.978 2.927-6.077 1.691-3.1 3.007-5.704 2.923-5.788-.122-.122-49.761-5.011-50.84-5.007-.165.001-.3 4.685-.3 10.41"/><path d="M35.2.603C24.685 2.739 11.587 10.489 4.332 18.868c-7.127 8.23-7.1 8.261 8.468 9.729 6.05.571 33.225 3.182 60.389 5.802C127.118 39.601 124 39.441 124 37c0-1.462-.252-1.581-36.8-17.418C36.868-2.229 41.257-.627 35.2.603M.497 30.063C.126 30.434 0 33.235 0 41.08V51.6h.889c.99 0 58.175 5.472 60.183 5.759 1.136.162 2.204-.517 9.991-6.356 8.49-6.367 10.379-7.458 8.423-4.867-7.21 9.547-8.88 12.25-7.586 12.281.385.009 9.61.873 20.5 1.92l19.8 1.903 3.2-.979c4.089-1.25 4.04-1.194 3.398-3.871-.768-3.202-.342-4.117 2.603-5.59l2.399-1.2.118-3.6c.143-4.375-.065-5.326-1.224-5.596-.492-.115-27.174-2.721-59.294-5.793-32.12-3.071-59.301-5.687-60.403-5.814-1.339-.154-2.168-.066-2.5.266M177.61 43.016c-17.476 4.896-15.7 35.161 2.19 37.326 12.288 1.487 19.809-5.704 19.795-18.926-.015-13.742-9.695-21.843-21.985-18.4m39.19-.091c-9.53 2.756-14.651 14.09-11.421 25.278 5.024 17.406 29.06 16.52 32.815-1.21 3.308-15.613-7.723-28.022-21.394-24.068m69.4.03c-16.367 3.985-17.423 31.637-1.4 36.676 5.126 1.612 12.492.96 16.7-1.479l1.7-.986v-2.983c0-1.641-.082-2.983-.182-2.983-.1 0-1.198.711-2.439 1.581-12.104 8.479-24.854-2.156-20.397-17.014 2.601-8.676 13.136-11.398 20.695-5.349 2.142 1.715 2.323 1.575 2.323-1.811v-2.994l-1.992-1.009c-4.065-2.06-10.442-2.761-15.008-1.649M142 61.6V80h23.2v-4.8h-17.6v-32H142v18.4m103.6 0V80h5.6V65.6l2.5-.003c11.205-.014 15.463-2.794 15.822-10.331.452-9.501-3.034-12.066-16.395-12.066H245.6v18.4m66.9-.295c-3.795 9.954-6.9 18.233-6.9 18.397 0 .164 1.328.298 2.951.298h2.951l.914-2.5 1.68-4.608.768-2.109 7.855.109 7.856.108 1.564 4.5 1.565 4.5h2.948c1.621 0 2.951-.135 2.955-.3.004-.165-3.094-8.445-6.884-18.4l-6.891-18.1-3.216.004-3.216.003-6.9 18.098m31.5.295V80h5.6V63.031l8.24 8.484L366.08 80h3.56c2.594 0 3.56-.137 3.56-.503 0-.277-4.14-4.641-9.2-9.697-5.06-5.056-9.2-9.314-9.2-9.461 0-.147 3.87-3.908 8.6-8.357 4.73-4.45 8.6-8.246 8.6-8.436 0-.19-1.575-.344-3.5-.342l-3.5.003-7.6 7.134-7.6 7.134-.109-7.137-.109-7.138H344v18.4m32.4 0V80H400v-4.8h-18V62.8h17.2V58H382V48h17.6v-4.8h-23.2v18.4M187.757 48.553c8.684 5.09 7.812 23.038-1.289 26.52-8.111 3.103-14.634-2.893-14.658-13.473-.025-11.265 7.909-17.757 15.947-13.047m37.12-.883c9.828 2.945 10.725 22.579 1.241 27.17-8.304 4.02-16.573-3.994-15.519-15.04.88-9.225 6.901-14.34 14.278-12.13m35.443.892c2.432 1.266 3.08 2.451 3.08 5.638 0 4.67-1.797 6.087-8.214 6.478l-3.986.243V48h4.02c2.673 0 4.382.188 5.1.562m65.433 9.538l2.944 7.9h-5.948c-3.272 0-5.95-.135-5.95-.3-.003-.561 5.8-16.073 5.906-15.786.057.157 1.429 3.841 3.048 8.186M0 64.314v10.315l26.242 2.529c22.059 2.127 26.321 2.443 26.744 1.986.277-.299 1.113-1.674 1.857-3.055l1.354-2.511-1.509-4.435c-1.69-4.966-1.761-4.634 1.481-6.957 2.715-1.945 2.774-2.44.331-2.759C54.918 59.221.739 54 .181 54 .081 54 0 58.641 0 64.314m67.603-1.854c-1.483 2.047-1.493 1.723.197 6.74.77 2.286 1.4 4.198 1.4 4.249 0 .05-1.575 1.489-3.5 3.196-1.925 1.708-3.549 3.296-3.61 3.53-.072.278 8.911 1.296 26.023 2.948l26.133 2.523 3.877-1.242c2.132-.683 3.877-1.299 3.877-1.368 0-.07.174-1.045.387-2.168.297-1.567.251-2.427-.2-3.705-.755-2.141-.745-4.695.029-7.358.6-2.064.589-2.185-.443-4.761-1.234-3.084-1.065-3.043-6.05-1.469l-3.677 1.16-20.323-1.965c-24.877-2.405-22.624-2.376-24.12-.31M0 87.609v10.408l.9.359c.495.198 5.94.822 12.1 1.388 6.16.565 29.11 2.743 51 4.838 47.068 4.506 58.443 5.392 59.368 4.625 1.127-.936.88-7.476-.375-9.893-1.323-2.55-1.923-6.394-1.599-10.234.306-3.633.504-3.531-3.979-2.038l-3.188 1.061-6.814-.659a59365.12 59365.12 0 0 0-27.745-2.673l-20.931-2.013-6.65 5.868c-3.657 3.227-6.716 5.668-6.797 5.425-.081-.243 1.236-2.978 2.927-6.077 1.691-3.1 3.007-5.704 2.923-5.788-.122-.122-49.761-5.011-50.84-5.007-.165.001-.3 4.685-.3 10.41"/><path d="M35.2.603C24.685 2.739 11.587 10.489 4.332 18.868c-7.127 8.23-7.1 8.261 8.468 9.729 6.05.571 33.225 3.182 60.389 5.802C127.118 39.601 124 39.441 124 37c0-1.462-.252-1.581-36.8-17.418C36.868-2.229 41.257-.627 35.2.603M.497 30.063C.126 30.434 0 33.235 0 41.08V51.6h.889c.99 0 58.175 5.472 60.183 5.759 1.136.162 2.204-.517 9.991-6.356 8.49-6.367 10.379-7.458 8.423-4.867-7.21 9.547-8.88 12.25-7.586 12.281.385.009 9.61.873 20.5 1.92l19.8 1.903 3.2-.979c4.089-1.25 4.04-1.194 3.398-3.871-.768-3.202-.342-4.117 2.603-5.59l2.399-1.2.118-3.6c.143-4.375-.065-5.326-1.224-5.596-.492-.115-27.174-2.721-59.294-5.793-32.12-3.071-59.301-5.687-60.403-5.814-1.339-.154-2.168-.066-2.5.266M177.61 43.016c-17.476 4.896-15.7 35.161 2.19 37.326 12.288 1.487 19.809-5.704 19.795-18.926-.015-13.742-9.695-21.843-21.985-18.4m39.19-.091c-9.53 2.756-14.651 14.09-11.421 25.278 5.024 17.406 29.06 16.52 32.815-1.21 3.308-15.613-7.723-28.022-21.394-24.068m69.4.03c-16.367 3.985-17.423 31.637-1.4 36.676 5.126 1.612 12.492.96 16.7-1.479l1.7-.986v-2.983c0-1.641-.082-2.983-.182-2.983-.1 0-1.198.711-2.439 1.581-12.104 8.479-24.854-2.156-20.397-17.014 2.601-8.676 13.136-11.398 20.695-5.349 2.142 1.715 2.323 1.575 2.323-1.811v-2.994l-1.992-1.009c-4.065-2.06-10.442-2.761-15.008-1.649M142 61.6V80h23.2v-4.8h-17.6v-32H142v18.4m103.6 0V80h5.6V65.6l2.5-.003c11.205-.014 15.463-2.794 15.822-10.331.452-9.501-3.034-12.066-16.395-12.066H245.6v18.4m66.9-.295c-3.795 9.954-6.9 18.233-6.9 18.397 0 .164 1.328.298 2.951.298h2.951l.914-2.5 1.68-4.608.768-2.109 7.855.109 7.856.108 1.564 4.5 1.565 4.5h2.948c1.621 0 2.951-.135 2.955-.3.004-.165-3.094-8.445-6.884-18.4l-6.891-18.1-3.216.004-3.216.003-6.9 18.098m31.5.295V80h5.6V63.031l8.24 8.484L366.08 80h3.56c2.594 0 3.56-.137 3.56-.503 0-.277-4.14-4.641-9.2-9.697-5.06-5.056-9.2-9.314-9.2-9.461 0-.147 3.87-3.908 8.6-8.357 4.73-4.45 8.6-8.246 8.6-8.436 0-.19-1.575-.344-3.5-.342l-3.5.003-7.6 7.134-7.6 7.134-.109-7.137-.109-7.138H344v18.4m32.4 0V80H400v-4.8h-18V62.8h17.2V58H382V48h17.6v-4.8h-23.2v18.4M187.757 48.553c8.684 5.09 7.812 23.038-1.289 26.52-8.111 3.103-14.634-2.893-14.658-13.473-.025-11.265 7.909-17.757 15.947-13.047m37.12-.883c9.828 2.945 10.725 22.579 1.241 27.17-8.304 4.02-16.573-3.994-15.519-15.04.88-9.225 6.901-14.34 14.278-12.13m35.443.892c2.432 1.266 3.08 2.451 3.08 5.638 0 4.67-1.797 6.087-8.214 6.478l-3.986.243V48h4.02c2.673 0 4.382.188 5.1.562m65.433 9.538l2.944 7.9h-5.948c-3.272 0-5.95-.135-5.95-.3-.003-.561 5.8-16.073 5.906-15.786.057.157 1.429 3.841 3.048 8.186M0 64.314v10.315l26.242 2.529c22.059 2.127 26.321 2.443 26.744 1.986.277-.299 1.113-1.674 1.857-3.055l1.354-2.511-1.509-4.435c-1.69-4.966-1.761-4.634 1.481-6.957 2.715-1.945 2.774-2.44.331-2.759C54.918 59.221.739 54 .181 54 .081 54 0 58.641 0 64.314m67.603-1.854c-1.483 2.047-1.493 1.723.197 6.74.77 2.286 1.4 4.198 1.4 4.249 0 .05-1.575 1.489-3.5 3.196-1.925 1.708-3.549 3.296-3.61 3.53-.072.278 8.911 1.296 26.023 2.948l26.133 2.523 3.877-1.242c2.132-.683 3.877-1.299 3.877-1.368 0-.07.174-1.045.387-2.168.297-1.567.251-2.427-.2-3.705-.755-2.141-.745-4.695.029-7.358.6-2.064.589-2.185-.443-4.761-1.234-3.084-1.065-3.043-6.05-1.469l-3.677 1.16-20.323-1.965c-24.877-2.405-22.624-2.376-24.12-.31M0 87.609v10.408l.9.359c.495.198 5.94.822 12.1 1.388 6.16.565 29.11 2.743 51 4.838 47.068 4.506 58.443 5.392 59.368 4.625 1.127-.936.88-7.476-.375-9.893-1.323-2.55-1.923-6.394-1.599-10.234.306-3.633.504-3.531-3.979-2.038l-3.188 1.061-6.814-.659a59365.12 59365.12 0 0 0-27.745-2.673l-20.931-2.013-6.65 5.868c-3.657 3.227-6.716 5.668-6.797 5.425-.081-.243 1.236-2.978 2.927-6.077 1.691-3.1 3.007-5.704 2.923-5.788-.122-.122-49.761-5.011-50.84-5.007-.165.001-.3 4.685-.3 10.41"/><path d="M35.2.603C24.685 2.739 11.587 10.489 4.332 18.868c-7.127 8.23-7.1 8.261 8.468 9.729 6.05.571 33.225 3.182 60.389 5.802C127.118 39.601 124 39.441 124 37c0-1.462-.252-1.581-36.8-17.418C36.868-2.229 41.257-.627 35.2.603M.497 30.063C.126 30.434 0 33.235 0 41.08V51.6h.889c.99 0 58.175 5.472 60.183 5.759 1.136.162 2.204-.517 9.991-6.356 8.49-6.367 10.379-7.458 8.423-4.867-7.21 9.547-8.88 12.25-7.586 12.281.385.009 9.61.873 20.5 1.92l19.8 1.903 3.2-.979c4.089-1.25 4.04-1.194 3.398-3.871-.768-3.202-.342-4.117 2.603-5.59l2.399-1.2.118-3.6c.143-4.375-.065-5.326-1.224-5.596-.492-.115-27.174-2.721-59.294-5.793-32.12-3.071-59.301-5.687-60.403-5.814-1.339-.154-2.168-.066-2.5.266M177.61 43.016c-17.476 4.896-15.7 35.161 2.19 37.326 12.288 1.487 19.809-5.704 19.795-18.926-.015-13.742-9.695-21.843-21.985-18.4m39.19-.091c-9.53 2.756-14.651 14.09-11.421 25.278 5.024 17.406 29.06 16.52 32.815-1.21 3.308-15.613-7.723-28.022-21.394-24.068m69.4.03c-16.367 3.985-17.423 31.637-1.4 36.676 5.126 1.612 12.492.96 16.7-1.479l1.7-.986v-2.983c0-1.641-.082-2.983-.182-2.983-.1 0-1.198.711-2.439 1.581-12.104 8.479-24.854-2.156-20.397-17.014 2.601-8.676 13.136-11.398 20.695-5.349 2.142 1.715 2.323 1.575 2.323-1.811v-2.994l-1.992-1.009c-4.065-2.06-10.442-2.761-15.008-1.649M142 61.6V80h23.2v-4.8h-17.6v-32H142v18.4m103.6 0V80h5.6V65.6l2.5-.003c11.205-.014 15.463-2.794 15.822-10.331.452-9.501-3.034-12.066-16.395-12.066H245.6v18.4m66.9-.295c-3.795 9.954-6.9 18.233-6.9 18.397 0 .164 1.328.298 2.951.298h2.951l.914-2.5 1.68-4.608.768-2.109 7.855.109 7.856.108 1.564 4.5 1.565 4.5h2.948c1.621 0 2.951-.135 2.955-.3.004-.165-3.094-8.445-6.884-18.4l-6.891-18.1-3.216.004-3.216.003-6.9 18.098m31.5.295V80h5.6V63.031l8.24 8.484L366.08 80h3.56c2.594 0 3.56-.137 3.56-.503 0-.277-4.14-4.641-9.2-9.697-5.06-5.056-9.2-9.314-9.2-9.461 0-.147 3.87-3.908 8.6-8.357 4.73-4.45 8.6-8.246 8.6-8.436 0-.19-1.575-.344-3.5-.342l-3.5.003-7.6 7.134-7.6 7.134-.109-7.137-.109-7.138H344v18.4m32.4 0V80H400v-4.8h-18V62.8h17.2V58H382V48h17.6v-4.8h-23.2v18.4M187.757 48.553c8.684 5.09 7.812 23.038-1.289 26.52-8.111 3.103-14.634-2.893-14.658-13.473-.025-11.265 7.909-17.757 15.947-13.047m37.12-.883c9.828 2.945 10.725 22.579 1.241 27.17-8.304 4.02-16.573-3.994-15.519-15.04.88-9.225 6.901-14.34 14.278-12.13m35.443.892c2.432 1.266 3.08 2.451 3.08 5.638 0 4.67-1.797 6.087-8.214 6.478l-3.986.243V48h4.02c2.673 0 4.382.188 5.1.562m65.433 9.538l2.944 7.9h-5.948c-3.272 0-5.95-.135-5.95-.3-.003-.561 5.8-16.073 5.906-15.786.057.157 1.429 3.841 3.048 8.186M0 64.314v10.315l26.242 2.529c22.059 2.127 26.321 2.443 26.744 1.986.277-.299 1.113-1.674 1.857-3.055l1.354-2.511-1.509-4.435c-1.69-4.966-1.761-4.634 1.481-6.957 2.715-1.945 2.774-2.44.331-2.759C54.918 59.221.739 54 .181 54 .081 54 0 58.641 0 64.314m67.603-1.854c-1.483 2.047-1.493 1.723.197 6.74.77 2.286 1.4 4.198 1.4 4.249 0 .05-1.575 1.489-3.5 3.196-1.925 1.708-3.549 3.296-3.61 3.53-.072.278 8.911 1.296 26.023 2.948l26.133 2.523 3.877-1.242c2.132-.683 3.877-1.299 3.877-1.368 0-.07.174-1.045.387-2.168.297-1.567.251-2.427-.2-3.705-.755-2.141-.745-4.695.029-7.358.6-2.064.589-2.185-.443-4.761-1.234-3.084-1.065-3.043-6.05-1.469l-3.677 1.16-20.323-1.965c-24.877-2.405-22.624-2.376-24.12-.31M0 87.609v10.408l.9.359c.495.198 5.94.822 12.1 1.388 6.16.565 29.11 2.743 51 4.838 47.068 4.506 58.443 5.392 59.368 4.625 1.127-.936.88-7.476-.375-9.893-1.323-2.55-1.923-6.394-1.599-10.234.306-3.633.504-3.531-3.979-2.038l-3.188 1.061-6.814-.659a59365.12 59365.12 0 0 0-27.745-2.673l-20.931-2.013-6.65 5.868c-3.657 3.227-6.716 5.668-6.797 5.425-.081-.243 1.236-2.978 2.927-6.077 1.691-3.1 3.007-5.704 2.923-5.788-.122-.122-49.761-5.011-50.84-5.007-.165.001-.3 4.685-.3 10.41"/><path d="M35.2.603C24.685 2.739 11.587 10.489 4.332 18.868c-7.127 8.23-7.1 8.261 8.468 9.729 6.05.571 33.225 3.182 60.389 5.802C127.118 39.601 124 39.441 124 37c0-1.462-.252-1.581-36.8-17.418C36.868-2.229 41.257-.627 35.2.603M.497 30.063C.126 30.434 0 33.235 0 41.08V51.6h.889c.99 0 58.175 5.472 60.183 5.759 1.136.162 2.204-.517 9.991-6.356 8.49-6.367 10.379-7.458 8.423-4.867-7.21 9.547-8.88 12.25-7.586 12.281.385.009 9.61.873 20.5 1.92l19.8 1.903 3.2-.979c4.089-1.25 4.04-1.194 3.398-3.871-.768-3.202-.342-4.117 2.603-5.59l2.399-1.2.118-3.6c.143-4.375-.065-5.326-1.224-5.596-.492-.115-27.174-2.721-59.294-5.793-32.12-3.071-59.301-5.687-60.403-5.814-1.339-.154-2.168-.066-2.5.266M177.61 43.016c-17.476 4.896-15.7 35.161 2.19 37.326 12.288 1.487 19.809-5.704 19.795-18.926-.015-13.742-9.695-21.843-21.985-18.4m39.19-.091c-9.53 2.756-14.651 14.09-11.421 25.278 5.024 17.406 29.06 16.52 32.815-1.21 3.308-15.613-7.723-28.022-21.394-24.068m69.4.03c-16.367 3.985-17.423 31.637-1.4 36.676 5.126 1.612 12.492.96 16.7-1.479l1.7-.986v-2.983c0-1.641-.082-2.983-.182-2.983-.1 0-1.198.711-2.439 1.581-12.104 8.479-24.854-2.156-20.397-17.014 2.601-8.676 13.136-11.398 20.695-5.349 2.142 1.715 2.323 1.575 2.323-1.811v-2.994l-1.992-1.009c-4.065-2.06-10.442-2.761-15.008-1.649M142 61.6V80h23.2v-4.8h-17.6v-32H142v18.4m103.6 0V80h5.6V65.6l2.5-.003c11.205-.014 15.463-2.794 15.822-10.331.452-9.501-3.034-12.066-16.395-12.066H245.6v18.4m66.9-.295c-3.795 9.954-6.9 18.233-6.9 18.397 0 .164 1.328.298 2.951.298h2.951l.914-2.5 1.68-4.608.768-2.109 7.855.109 7.856.108 1.564 4.5 1.565 4.5h2.948c1.621 0 2.951-.135 2.955-.3.004-.165-3.094-8.445-6.884-18.4l-6.891-18.1-3.216.004-3.216.003-6.9 18.098m31.5.295V80h5.6V63.031l8.24 8.484L366.08 80h3.56c2.594 0 3.56-.137 3.56-.503 0-.277-4.14-4.641-9.2-9.697-5.06-5.056-9.2-9.314-9.2-9.461 0-.147 3.87-3.908 8.6-8.357 4.73-4.45 8.6-8.246 8.6-8.436 0-.19-1.575-.344-3.5-.342l-3.5.003-7.6 7.134-7.6 7.134-.109-7.137-.109-7.138H344v18.4m32.4 0V80H400v-4.8h-18V62.8h17.2V58H382V48h17.6v-4.8h-23.2v18.4M187.757 48.553c8.684 5.09 7.812 23.038-1.289 26.52-8.111 3.103-14.634-2.893-14.658-13.473-.025-11.265 7.909-17.757 15.947-13.047m37.12-.883c9.828 2.945 10.725 22.579 1.241 27.17-8.304 4.02-16.573-3.994-15.519-15.04.88-9.225 6.901-14.34 14.278-12.13m35.443.892c2.432 1.266 3.08 2.451 3.08 5.638 0 4.67-1.797 6.087-8.214 6.478l-3.986.243V48h4.02c2.673 0 4.382.188 5.1.562m65.433 9.538l2.944 7.9h-5.948c-3.272 0-5.95-.135-5.95-.3-.003-.561 5.8-16.073 5.906-15.786.057.157 1.429 3.841 3.048 8.186M0 64.314v10.315l26.242 2.529c22.059 2.127 26.321 2.443 26.744 1.986.277-.299 1.113-1.674 1.857-3.055l1.354-2.511-1.509-4.435c-1.69-4.966-1.761-4.634 1.481-6.957 2.715-1.945 2.774-2.44.331-2.759C54.918 59.221.739 54 .181 54 .081 54 0 58.641 0 64.314m67.603-1.854c-1.483 2.047-1.493 1.723.197 6.74.77 2.286 1.4 4.198 1.4 4.249 0 .05-1.575 1.489-3.5 3.196-1.925 1.708-3.549 3.296-3.61 3.53-.072.278 8.911 1.296 26.023 2.948l26.133 2.523 3.877-1.242c2.132-.683 3.877-1.299 3.877-1.368 0-.07.174-1.045.387-2.168.297-1.567.251-2.427-.2-3.705-.755-2.141-.745-4.695.029-7.358.6-2.064.589-2.185-.443-4.761-1.234-3.084-1.065-3.043-6.05-1.469l-3.677 1.16-20.323-1.965c-24.877-2.405-22.624-2.376-24.12-.31M0 87.609v10.408l.9.359c.495.198 5.94.822 12.1 1.388 6.16.565 29.11 2.743 51 4.838 47.068 4.506 58.443 5.392 59.368 4.625 1.127-.936.88-7.476-.375-9.893-1.323-2.55-1.923-6.394-1.599-10.234.306-3.633.504-3.531-3.979-2.038l-3.188 1.061-6.814-.659a59365.12 59365.12 0 0 0-27.745-2.673l-20.931-2.013-6.65 5.868c-3.657 3.227-6.716 5.668-6.797 5.425-.081-.243 1.236-2.978 2.927-6.077 1.691-3.1 3.007-5.704 2.923-5.788-.122-.122-49.761-5.011-50.84-5.007-.165.001-.3 4.685-.3 10.41"/></g></svg>