<?xml version="1.0" encoding="UTF-8" standalone="no"?>
<!-- Generated by IcoMoon.io -->

<svg
   xmlns:dc="http://purl.org/dc/elements/1.1/"
   xmlns:cc="http://creativecommons.org/ns#"
   xmlns:rdf="http://www.w3.org/1999/02/22-rdf-syntax-ns#"
   xmlns:svg="http://www.w3.org/2000/svg"
   xmlns="http://www.w3.org/2000/svg"
   xmlns:sodipodi="http://sodipodi.sourceforge.net/DTD/sodipodi-0.dtd"
   xmlns:inkscape="http://www.inkscape.org/namespaces/inkscape"
   version="1.1"
   width="19"
   height="20"
   viewBox="0 0 19 20"
   id="svg2"
   inkscape:version="0.91 r13725"
   sodipodi:docname="twitter.svg">
  <metadata
     id="metadata12">
    <rdf:RDF>
      <cc:Work
         rdf:about="">
        <dc:format>image/svg+xml</dc:format>
        <dc:type
           rdf:resource="http://purl.org/dc/dcmitype/StillImage" />
      </cc:Work>
    </rdf:RDF>
  </metadata>
  <defs
     id="defs10" />
  <sodipodi:namedview
     pagecolor="#ffffff"
     bordercolor="#666666"
     borderopacity="1"
     objecttolerance="10"
     gridtolerance="10"
     guidetolerance="10"
     inkscape:pageopacity="0"
     inkscape:pageshadow="2"
     inkscape:window-width="725"
     inkscape:window-height="480"
     id="namedview8"
     showgrid="false"
     inkscape:zoom="11.8"
     inkscape:cx="9.5"
     inkscape:cy="10"
     inkscape:window-x="0"
     inkscape:window-y="0"
     inkscape:window-maximized="0"
     inkscape:current-layer="svg2" />
  <title
     id="title4">twitter</title>
  <path
     fill="#fe504f"
     d="M18.080 4.554c-0.491 0.714-1.105 1.35-1.808 1.864 0.011 0.156 0.011 0.313 0.011 0.469 0 4.766-3.627 10.257-10.257 10.257-2.042 0-3.94-0.592-5.536-1.618 0.29 0.033 0.569 0.045 0.871 0.045 1.685 0 3.237-0.569 4.475-1.54-1.585-0.033-2.913-1.071-3.371-2.5 0.223 0.033 0.446 0.056 0.681 0.056 0.324 0 0.647-0.045 0.949-0.123-1.652-0.335-2.891-1.786-2.891-3.538v-0.045c0.48 0.268 1.038 0.435 1.629 0.458-0.971-0.647-1.607-1.752-1.607-3.002 0-0.67 0.179-1.283 0.491-1.819 1.775 2.187 4.442 3.616 7.433 3.772-0.056-0.268-0.089-0.547-0.089-0.826 0-1.987 1.607-3.605 3.605-3.605 1.038 0 1.975 0.435 2.634 1.138 0.815-0.156 1.596-0.458 2.288-0.871-0.268 0.837-0.837 1.54-1.585 1.987 0.725-0.078 1.429-0.279 2.076-0.558z"
     id="path6"
     style="fill:#2c3e50;fill-opacity:1" />
</svg>
